<svg width="86" height="76" viewBox="0 0 86 76" fill="none" xmlns="http://www.w3.org/2000/svg">
<path d="M39.0212 0.955559C59.7126 0.955559 76.4864 17.7293 76.4864 38.4207C76.4864 59.1122 59.7126 75.8859 39.0212 75.8859C18.3298 75.8859 1.55603 59.1122 1.55603 38.4207C1.55603 17.7293 18.3298 0.955559 39.0212 0.955559Z" fill="#2389FF"/>
<path d="M39.0212 0.955559C59.7126 0.955559 76.4864 17.7293 76.4864 38.4207C76.4864 59.1122 59.7126 75.8859 39.0212 75.8859C18.3298 75.8859 1.55603 59.1122 1.55603 38.4207C1.55603 17.7293 18.3298 0.955559 39.0212 0.955559Z" fill="url(#paint0_radial_5_140)"/>
<path d="M34.5712 23.7412C34.2121 21.1267 36.0237 18.7184 38.6174 18.3622C41.2112 18.006 43.6049 19.8367 43.964 22.4512L45.0575 30.413C45.4166 33.0275 43.605 35.4358 41.0113 35.792C38.4176 36.1482 36.0238 34.3175 35.6647 31.703L34.5712 23.7412Z" fill="white"/>
<path d="M54.2805 21.2302C53.9394 18.7464 55.5552 16.473 57.8896 16.1524C60.224 15.8318 62.3929 17.5854 62.734 20.0692L63.7729 27.6328C64.114 30.1166 62.4982 32.3901 60.1638 32.7107C57.8294 33.0313 55.6605 31.2777 55.3193 28.7939L54.2805 21.2302Z" fill="white"/>
<rect y="47.8968" width="85.7647" height="28.0588" rx="3.11203" fill="#002E58"/>
<path d="M7.05884 56.5438L14.9362 61.0918C15.5845 61.4661 15.5845 62.4019 14.9362 62.7762L7.05884 67.3242" stroke="white" stroke-width="3.52941" stroke-linecap="round"/>
<path d="M23.4706 68.3673H31.2507" stroke="#007CFF" stroke-width="3.52941" stroke-linecap="round"/>
<path d="M77.866 7.36073e-06C81.2604 7.50911e-06 84.0122 2.75178 84.0122 6.14626C84.0122 9.54074 81.2604 12.2925 77.866 12.2925L72.4428 12.2925C72.0434 12.2925 71.7197 11.9688 71.7197 11.5694L71.7197 6.14626C71.7197 2.75178 74.4715 7.21236e-06 77.866 7.36073e-06Z" fill="#1783FF"/>
<defs>
<radialGradient id="paint0_radial_5_140" cx="0" cy="0" r="1" gradientUnits="userSpaceOnUse" gradientTransform="translate(39.0212 33.8605) scale(37.9251)">
<stop stop-color="#117DFB"/>
<stop offset="0.759254" stop-color="#449BFF"/>
<stop offset="1" stop-color="#77B6FF"/>
</radialGradient>
</defs>
</svg>
